<?xml version="1.0" standalone="no"?>
<!DOCTYPE svg PUBLIC "-//W3C//DTD SVG 20010904//EN"
 "http://www.w3.org/TR/2001/REC-SVG-20010904/DTD/svg10.dtd">
<svg version="1.0" xmlns="http://www.w3.org/2000/svg"
 width="363.000000pt" height="363.000000pt" viewBox="0 0 363.000000 363.000000"
 preserveAspectRatio="xMidYMid meet">
<metadata>
Created by potrace 1.11, written by Peter Selinger 2001-2013
</metadata>
<g transform="translate(0.000000,363.000000) scale(0.100000,-0.100000)"
fill="#000000" stroke="none">
<path d="M1650 3619 c-62 -7 -125 -15 -181 -24 -127 -21 -292 -78 -454 -155
-222 -106 -447 -285 -611 -486 -126 -153 -244 -372 -313 -580 -98 -300 -113
-669 -39 -974 92 -380 313 -737 598 -969 25 -20 47 -39 50 -42 20 -23 212
-142 304 -189 160 -81 323 -132 556 -175 60 -11 392 -14 460 -5 491 72 882
284 1183 643 126 150 252 372 317 562 25 73 68 236 75 290 4 22 9 58 12 80 9
56 9 358 1 430 -19 159 -62 326 -121 470 -39 96 -51 121 -120 245 -85 153
-299 395 -454 513 -251 192 -547 314 -868 358 -97 13 -306 17 -395 8z"/>
</g>
</svg>
